<svg width="469" height="242" viewBox="0 0 469 242" fill="none" xmlns="http://www.w3.org/2000/svg">
<path d="M327.332 2.26675C334.265 6.80009 339.732 12.9334 343.465 20.2668C346.265 25.8668 348.132 28.0001 350.132 28.0001C357.732 28.0001 371.465 39.2001 377.732 50.6668C389.332 71.3334 389.065 102.933 377.332 123.467C370.665 134.933 359.999 141.867 345.465 144.267C343.865 144.533 342.265 146.667 341.065 150C340.132 153.067 337.599 157.333 335.332 159.733L331.465 164H215.465C138.932 164 99.332 164.4 99.332 165.333C99.332 167.467 104.132 171.733 110.132 174.667L115.732 177.6L228.532 177.067C305.332 176.8 342.132 176.133 343.865 175.2C347.732 172.933 359.199 161.2 359.999 158.667C360.399 157.333 362.399 155.867 364.399 155.333C372.132 153.467 385.599 142.667 391.732 133.467L393.865 130.4L395.199 135.467C397.065 142 400.132 146.533 405.865 151.467L410.532 155.333H432.799C453.332 155.333 455.465 155.067 458.932 152.533C465.332 147.733 468.665 141.6 468.665 134.4C468.665 126 466.132 120.267 460.132 114.933C455.332 110.667 452.799 109.733 445.465 109.067C439.199 108.4 439.999 105.867 446.932 104.133C453.732 102.4 459.599 97.7334 462.932 91.4668C466.932 83.7334 464.799 70.4001 458.665 65.3334C456.799 63.7334 456.932 63.2001 459.865 60.1334C472.665 46.5334 471.599 28.8001 457.599 19.0668C452.265 15.3334 452.265 15.3334 428.799 15.3334C403.865 15.3334 400.665 16.0001 393.065 22.9334L390.265 25.6001L381.065 18.5334C365.332 6.40008 347.865 9.15527e-05 330.799 9.15527e-05C324.132 9.15527e-05 324.132 8.72612e-05 327.332 2.26675ZM450.265 36.1334C452.532 39.2001 452.665 40.1334 451.332 42.8001C448.665 47.6001 447.732 48.0001 433.599 48.0001H420.532L420.932 60.2668L421.332 72.6668L432.399 73.3334C441.465 73.8668 443.865 74.5334 445.465 76.5334C447.999 80.1334 447.865 82.1334 444.665 85.3334C442.532 87.4668 440.265 88.0001 432.132 88.0001C426.665 88.0001 421.865 88.4001 421.599 88.9334C421.332 89.6001 421.465 98.1334 421.865 108L422.665 126L435.199 126.667C446.932 127.333 447.865 127.6 450.399 130.933C452.932 134.267 452.932 134.667 450.799 137.867C448.665 141.2 448.265 141.333 432.932 141.333C417.199 141.333 417.199 141.333 413.332 137.333C408.799 132.667 408.932 133.733 408.132 79.4668L407.599 38.2668L410.799 35.0668C413.865 32.0001 414.665 32.0001 430.799 32.2668C447.332 32.6668 447.732 32.8001 450.265 36.1334Z" fill="white"/>
<path d="M292.133 8.5335C286 10.8002 280.133 16.1335 278 21.4668C276.533 24.9335 276.133 25.0668 273.466 23.3335C256 11.8668 213.733 13.0668 202.266 25.3335C199.6 28.1335 199.2 28.2668 195.066 26.5335C184.666 22.1335 164.666 25.2002 154.4 32.9335L150 36.1335L143.2 31.3335C134.666 25.4668 127.466 23.4668 117.333 24.4002C108.8 25.0668 97.8662 29.6002 93.5996 34.4002C91.0662 37.2002 91.0662 37.0668 83.5996 29.4668C71.1996 17.0668 67.9996 16.0002 40.5329 16.0002C17.7329 16.0002 17.0662 16.1335 11.9996 19.4668C4.26624 24.4002 1.59957 28.8002 0.932906 36.9335C0.26624 44.0002 3.46624 54.6668 6.26624 54.6668C6.79957 54.6668 7.33291 63.8668 7.33291 74.9335C7.33291 86.1335 7.73291 106.667 8.26624 120.534L9.06624 145.734L13.1996 150.4C23.7329 162.4 41.0662 163.067 51.3329 151.734L55.3329 147.467L60.2662 152.267C67.9996 159.6 73.1996 161.734 82.1329 161.067C87.5996 160.667 91.0662 159.6 94.2662 157.2C98.6662 153.867 98.6662 153.867 104.666 156.134C118.266 161.467 136 158 145.2 148.134L149.2 144L152.533 147.2C159.866 154.134 167.2 156.667 179.333 156.667C189.733 156.667 191.333 156.267 198.4 152.267L206.133 147.867L210.4 151.2C216.4 155.734 223.6 158.667 229.066 158.667C235.333 158.667 246.266 152.8 249.2 147.867L251.6 143.734L257.2 149.067C260.133 152.134 264.4 155.2 266.4 155.867C271.6 157.867 280.666 157.6 284.533 155.467C287.333 153.867 288.266 153.867 290.933 155.6C302.666 163.334 324.266 157.734 328.8 145.734C330.8 140.534 334.266 32.6668 332.666 26.5335C331.066 20.8002 324.4 13.3335 317.733 9.86684C311.866 6.80017 298.666 6.1335 292.133 8.5335ZM310.4 21.8668C322.4 26.8002 322.133 43.7335 310 50.0002C299.6 55.3335 287.333 48.4002 287.333 37.3335C287.333 30.4002 292.8 23.4668 300 21.0668C304.266 19.7335 305.733 19.8668 310.4 21.8668ZM65.7329 35.2002C70.7996 37.8668 76.3996 44.4002 79.7329 51.8668C83.5996 60.5335 82.5329 73.7335 77.5996 81.0668C75.4662 84.0002 71.9996 87.2002 69.8662 88.0002C67.7329 88.9335 65.9996 90.5335 65.9996 91.7335C65.9996 92.8002 71.0662 102.534 77.3329 113.467C83.5996 124.267 88.6662 134.667 88.6662 136.534C88.6662 140.134 84.3996 144 80.3996 144C79.0662 144 77.1996 142.667 76.2662 140.934C59.5996 114 47.3329 91.6002 47.3329 88.0002C47.3329 82.4002 49.4662 78.6668 52.7996 78.6668C57.5996 78.6668 62.9329 74.9335 65.3329 69.8668C67.9996 64.1335 67.3329 59.0668 63.0662 53.3335L60.1329 49.3335H41.0662H22.1329L19.9996 45.3335C17.5996 40.6668 17.4662 38.1335 19.4662 34.4002C20.9329 31.7335 21.7329 31.6002 41.3329 32.4002C55.8662 32.9335 62.7996 33.7335 65.7329 35.2002ZM259.733 35.2002C269.6 39.3335 277.066 51.6002 277.066 63.3335C276.933 74.8002 272.266 83.0668 262.533 88.8002C260.133 90.2668 260.133 90.5335 262.933 96.1335C267.2 104.667 277.866 124.134 280.133 127.6C282.4 131.2 282.533 137.6 280.4 139.734C279.466 140.667 277.066 141.334 275.066 141.334C270.4 141.334 270.933 142.134 248.8 100.934C245.6 95.0668 244.666 91.6002 244.666 86.0002C244.666 80.1335 245.066 78.6668 246.8 78.6668C251.066 78.6668 258.133 74.2668 260.266 70.2668C263.066 64.6668 261.866 56.5335 257.466 52.1335C254.133 48.8002 253.2 48.6668 235.066 48.0002L216 47.3335L214.8 43.7335C213.866 41.3335 214 39.0668 215.066 36.6668L216.666 33.3335H236C249.6 33.3335 256.666 33.8668 259.733 35.2002ZM129.6 43.4668C132.133 44.6668 135.733 47.8668 137.733 50.4002L141.333 55.0668L141.733 89.6002C142.133 123.2 142.133 124.267 139.2 128.8C135.866 134.267 125.2 140 118.666 140C112.666 140 104.533 135.734 99.5996 130.134L95.3329 125.2V93.0668C95.3329 62.8002 95.4662 60.5335 98.1329 54.9335C103.733 43.3335 118.133 38.1335 129.6 43.4668ZM192.266 45.7335C200.533 51.3335 200.666 52.0002 200.666 92.2668C200.666 133.067 200.8 132.534 191.333 137.334C181.6 142.267 164.933 139.334 160.266 131.734C157.866 127.867 156 64.6668 158 57.2002C161.733 43.8668 180.133 37.7335 192.266 45.7335ZM37.1996 141.6C34.5329 144.4 30.1329 144.667 26.9329 142.267C24.7996 140.8 24.6662 137.467 24.9329 106L25.3329 71.3335L31.9996 66.9335L38.6662 62.4002L39.0662 100.8C39.3329 135.067 39.1996 139.334 37.1996 141.6ZM310.4 64.5335C312.4 66.1335 312.666 69.6002 312.666 103.067V140L309.466 142C305.6 144.534 299.866 143.467 298 140C297.2 138.534 296.666 122.4 296.666 101.6V65.7335L299.733 64.2668C303.733 62.2668 307.6 62.4002 310.4 64.5335ZM236.666 100.4C236.666 140.667 236.266 142.667 228.666 142.667C220.933 142.667 220.666 141.6 220.666 106.934C220.8 78.4002 220.933 75.0668 223.2 72.4002C225.6 69.6002 233.733 64.0002 235.733 64.0002C236.266 64.0002 236.666 80.4002 236.666 100.4Z" fill="white"/>
<path d="M113.465 60.2666C111.732 62.7999 111.332 67.8666 111.332 89.3333C111.332 110.8 111.732 115.867 113.465 118.4C115.732 121.6 122.132 122.4 124.399 119.6C125.065 118.8 126.132 105.867 126.665 91.0666C127.465 67.1999 127.332 63.5999 125.465 60.6666C122.665 56.2666 116.399 56.1333 113.465 60.2666Z" fill="white"/>
<path d="M173.999 60.0001C171.465 62.5335 171.332 64.4001 171.332 89.0668C171.332 110.8 171.732 115.867 173.465 118.4C175.732 121.733 180.265 122.267 184.132 119.467C186.532 117.733 186.665 115.733 186.665 90.0001C186.665 62.6668 186.665 62.4001 183.465 59.8668C179.465 56.6668 177.332 56.6668 173.999 60.0001Z" fill="white"/>
<path d="M346 44.9334C346 45.6 345.067 60.6667 344 78.6667C342.933 96.6667 342 115.733 342 121.067V130.933L346.4 130C353.2 128.667 360.933 122.533 365.6 114.8C371.067 105.733 374.667 90.2667 373.467 80.5334C371.733 65.4667 363.467 50.9334 353.867 45.8667C349.867 43.8667 346 43.3334 346 44.9334Z" fill="white"/>
<path d="M133.065 184C131.465 184.667 129.199 186.667 127.999 188.533C126.132 191.333 125.999 192.667 127.199 196.267C130.132 204.8 154.532 221.733 176.399 230.533C209.199 243.6 248.932 244.8 283.332 233.733C305.199 226.667 331.865 210.533 339.065 200C342.665 194.533 342.799 188.8 339.332 185.333C336.665 182.667 334.932 182.667 236.399 182.8C181.199 182.8 134.665 183.333 133.065 184ZM326.932 196.8C327.332 198 326.932 199.333 326.132 200C325.199 200.533 283.865 201.067 234.399 201.2C141.865 201.467 138.132 201.333 142.132 196.533C143.332 194.933 159.332 194.667 234.932 194.667C317.332 194.667 326.132 194.933 326.932 196.8ZM290.665 217.333C290.665 219.067 283.332 219.333 234.399 219.733C187.865 220 177.999 219.733 177.999 218.267C177.999 217.2 178.399 216 178.932 215.6C179.465 215.067 204.799 214.8 235.199 214.933C283.465 215.333 290.665 215.6 290.665 217.333Z" fill="white"/>
</svg>
